<svg id="visual" viewBox="0 0 900 900" width="900" height="900" xmlns="http://www.w3.org/2000/svg" xmlns:xlink="http://www.w3.org/1999/xlink" version="1.1"><g transform="translate(454.139217810353 429.9742665002236)"><path d="M204 -282.3C257.5 -241.9 289.2 -173.1 316.3 -100.3C343.3 -27.5 365.7 49.3 345.8 112.9C325.9 176.6 263.8 227 199.1 277.8C134.4 328.7 67.2 379.8 -6.6 388.9C-80.3 397.9 -160.7 364.8 -223.1 313.3C-285.6 261.7 -330.1 191.7 -349.6 117.1C-369 42.4 -363.3 -36.9 -344.9 -117.8C-326.6 -198.8 -295.5 -281.4 -235.9 -319.9C-176.3 -358.4 -88.2 -352.7 -6.5 -343.8C75.2 -334.9 150.5 -322.8 204 -282.3" fill="#365aff"></path></g></svg>